<mxfile host="Electron" agent="Mozilla/5.0 (Windows NT 10.0; Win64; x64) AppleWebKit/537.36 (KHTML, like Gecko) draw.io/24.7.17 Chrome/128.0.6613.36 Electron/32.0.1 Safari/537.36" version="24.7.17">
  <diagram name="Seite-1" id="wWd1Cp0578Us6A5AVgAs">
    <mxGraphModel dx="658" dy="464" grid="0" gridSize="10" guides="1" tooltips="1" connect="1" arrows="1" fold="1" page="1" pageScale="1" pageWidth="827" pageHeight="1169" background="#ffffff" math="0" shadow="0">
      <root>
        <mxCell id="0" />
        <mxCell id="1" parent="0" />
        <mxCell id="Mf00HP_BYAakIvplPf2A-29" value="&lt;b&gt;&lt;font color=&quot;#cc0066&quot; style=&quot;font-size: 20px;&quot;&gt;ISE AG&lt;/font&gt;&lt;/b&gt;" style="ellipse;whiteSpace=wrap;html=1;labelPosition=center;verticalLabelPosition=top;align=center;verticalAlign=bottom;fillColor=none;strokeColor=#000000;" parent="1" vertex="1">
          <mxGeometry x="94" y="110" width="646" height="271" as="geometry" />
        </mxCell>
        <mxCell id="Mf00HP_BYAakIvplPf2A-7" value="&lt;b&gt;&lt;font style=&quot;font-size: 15px;&quot;&gt;Geschäftsleitung (GL)&lt;/font&gt;&lt;/b&gt;" style="ellipse;whiteSpace=wrap;html=1;labelPosition=center;verticalLabelPosition=top;align=center;verticalAlign=bottom;fillColor=#feb470;strokeColor=#000000;fontColor=#000000;" parent="1" vertex="1">
          <mxGeometry x="117" y="192.5" width="229" height="102.5" as="geometry" />
        </mxCell>
        <mxCell id="Mf00HP_BYAakIvplPf2A-15" value="&lt;b&gt;&lt;font style=&quot;font-size: 15px;&quot;&gt;Pot. neuer Mitarbeiter&lt;/font&gt;&lt;/b&gt;" style="ellipse;whiteSpace=wrap;html=1;labelPosition=center;verticalLabelPosition=bottom;align=center;verticalAlign=top;fillColor=#ffb570;fontColor=#000000;strokeColor=#000000;" parent="1" vertex="1">
          <mxGeometry x="350" y="414" width="171" height="54" as="geometry" />
        </mxCell>
        <mxCell id="Mf00HP_BYAakIvplPf2A-19" value="" style="endArrow=classic;startArrow=classic;html=1;rounded=0;entryX=1;entryY=0.5;entryDx=0;entryDy=0;exitX=0;exitY=0.5;exitDx=0;exitDy=0;curved=0;strokeWidth=5;fillColor=#e1d5e7;strokeColor=#9673a6;endFill=1;" parent="1" source="Mf00HP_BYAakIvplPf2A-3" target="Mf00HP_BYAakIvplPf2A-7" edge="1">
          <mxGeometry width="50" height="50" relative="1" as="geometry">
            <mxPoint x="365" y="480" as="sourcePoint" />
            <mxPoint x="415" y="430" as="targetPoint" />
          </mxGeometry>
        </mxCell>
        <mxCell id="Mf00HP_BYAakIvplPf2A-24" value="" style="endArrow=classic;startArrow=classic;html=1;rounded=0;entryX=0.5;entryY=1;entryDx=0;entryDy=0;exitX=0.034;exitY=0.295;exitDx=0;exitDy=0;fillColor=#e1d5e7;strokeColor=#9673a6;strokeWidth=5;exitPerimeter=0;" parent="1" source="Mf00HP_BYAakIvplPf2A-15" target="Mf00HP_BYAakIvplPf2A-7" edge="1">
          <mxGeometry width="50" height="50" relative="1" as="geometry">
            <mxPoint x="380" y="490" as="sourcePoint" />
            <mxPoint x="430" y="440" as="targetPoint" />
          </mxGeometry>
        </mxCell>
        <mxCell id="Mf00HP_BYAakIvplPf2A-27" value="" style="group;fillColor=none;fontColor=#000000;strokeColor=none;rotation=0;" parent="1" vertex="1" connectable="0">
          <mxGeometry x="340.75" y="144" width="186" height="79.54" as="geometry" />
        </mxCell>
        <mxCell id="Mf00HP_BYAakIvplPf2A-26" value="&lt;font style=&quot;font-size: 12px;&quot;&gt;Camunda Server&lt;/font&gt;&lt;div&gt;&lt;font style=&quot;font-size: 12px;&quot;&gt;(BPMN)&lt;/font&gt;&lt;/div&gt;" style="ellipse;whiteSpace=wrap;html=1;fillColor=none;labelPosition=center;verticalLabelPosition=top;align=center;verticalAlign=bottom;fontColor=#000000;strokeColor=#00FF00;strokeWidth=2;rotation=0;" parent="Mf00HP_BYAakIvplPf2A-27" vertex="1">
          <mxGeometry x="11.061768082663605" y="4.54" width="170.00101033295064" height="75" as="geometry" />
        </mxCell>
        <mxCell id="Mf00HP_BYAakIvplPf2A-35" value="Benutzererfassung" style="ellipse;whiteSpace=wrap;html=1;fillColor=#99FF99;strokeColor=#33FF33;fontColor=#000000;rotation=0;" parent="Mf00HP_BYAakIvplPf2A-27" vertex="1">
          <mxGeometry x="40.18329896907217" y="22.04" width="111.76298969072165" height="40" as="geometry" />
        </mxCell>
        <mxCell id="Mf00HP_BYAakIvplPf2A-30" value="Persönliche Unterlagen" style="ellipse;whiteSpace=wrap;html=1;fillColor=#dae8fc;strokeColor=#6c8ebf;fontColor=#000000;" parent="1" vertex="1">
          <mxGeometry x="363.75" y="423.25" width="140" height="35.5" as="geometry" />
        </mxCell>
        <mxCell id="Mf00HP_BYAakIvplPf2A-31" value="Ablage Dokumente" style="ellipse;whiteSpace=wrap;html=1;fillColor=#f8cecc;strokeColor=#b85450;labelBackgroundColor=none;fontColor=#000000;fontSize=10;" parent="1" vertex="1">
          <mxGeometry x="228.25" y="238.41" width="102" height="23.47" as="geometry" />
        </mxCell>
        <mxCell id="Mf00HP_BYAakIvplPf2A-32" value="Einstellung neuer Mitarbeiter" style="ellipse;whiteSpace=wrap;html=1;fillColor=#f8cecc;strokeColor=#b85450;labelBackgroundColor=none;fontColor=#000000;fontSize=10;" parent="1" vertex="1">
          <mxGeometry x="138" y="210.41" width="142" height="28" as="geometry" />
        </mxCell>
        <mxCell id="ImZBpzeS0wlHYpYX2jTG-1" value="" style="group" vertex="1" connectable="0" parent="1">
          <mxGeometry x="332" y="299" width="207" height="60" as="geometry" />
        </mxCell>
        <mxCell id="Mf00HP_BYAakIvplPf2A-21" value="&lt;font style=&quot;&quot; color=&quot;#000000&quot;&gt;Onboarding&lt;/font&gt;" style="ellipse;whiteSpace=wrap;html=1;fillColor=none;fontSize=15;labelPosition=center;verticalLabelPosition=top;align=center;verticalAlign=bottom;fontColor=#ffffff;strokeColor=#B20000;strokeWidth=2;" parent="ImZBpzeS0wlHYpYX2jTG-1" vertex="1">
          <mxGeometry width="207" height="60" as="geometry" />
        </mxCell>
        <mxCell id="Mf00HP_BYAakIvplPf2A-34" value="&lt;span style=&quot;font-family: Helvetica; font-size: 12px; font-style: normal; font-variant-ligatures: normal; font-variant-caps: normal; font-weight: 400; letter-spacing: normal; orphans: 2; text-align: center; text-indent: 0px; text-transform: none; widows: 2; word-spacing: 0px; -webkit-text-stroke-width: 0px; white-space: normal; text-decoration-thickness: initial; text-decoration-style: initial; text-decoration-color: initial; float: none; display: inline !important;&quot;&gt;Onboarding vorbereitung&lt;/span&gt;" style="ellipse;whiteSpace=wrap;html=1;fillColor=#f8cecc;strokeColor=#b85450;labelBackgroundColor=none;fontColor=#000000;" parent="ImZBpzeS0wlHYpYX2jTG-1" vertex="1">
          <mxGeometry x="23.5" y="10" width="160" height="40" as="geometry" />
        </mxCell>
        <mxCell id="ImZBpzeS0wlHYpYX2jTG-6" value="Administratives" style="ellipse;whiteSpace=wrap;html=1;fillColor=#f8cecc;strokeColor=#b85450;labelBackgroundColor=none;fontColor=#000000;fontSize=10;" vertex="1" parent="1">
          <mxGeometry x="138" y="248.00000000000003" width="87" height="27.82" as="geometry" />
        </mxCell>
        <mxCell id="Mf00HP_BYAakIvplPf2A-3" value="&lt;b&gt;&lt;font style=&quot;font-size: 15px;&quot;&gt;Mitarbeiter&lt;/font&gt;&lt;/b&gt;" style="ellipse;whiteSpace=wrap;html=1;labelPosition=center;verticalLabelPosition=top;align=center;verticalAlign=bottom;fillColor=#FFB570;fontColor=#000000;strokeColor=#000000;" parent="1" vertex="1">
          <mxGeometry x="526.75" y="188.16" width="194" height="111.18" as="geometry" />
        </mxCell>
        <mxCell id="ImZBpzeS0wlHYpYX2jTG-3" value="Hardware vorbereiten" style="ellipse;whiteSpace=wrap;html=1;fillColor=#f8cecc;strokeColor=#b85450;labelBackgroundColor=none;fontColor=#000000;fontSize=10;" vertex="1" parent="1">
          <mxGeometry x="545" y="245.68000000000004" width="106" height="30.14" as="geometry" />
        </mxCell>
        <mxCell id="ImZBpzeS0wlHYpYX2jTG-4" value="Login erstellung" style="ellipse;whiteSpace=wrap;html=1;fillColor=#f8cecc;strokeColor=#b85450;labelBackgroundColor=none;fontColor=#000000;fontSize=10;" vertex="1" parent="1">
          <mxGeometry x="558.5" y="201" width="79" height="33.14" as="geometry" />
        </mxCell>
        <mxCell id="ImZBpzeS0wlHYpYX2jTG-5" value="Arbeitsplatz" style="ellipse;whiteSpace=wrap;html=1;fillColor=#f8cecc;strokeColor=#b85450;labelBackgroundColor=none;fontColor=#000000;fontSize=10;" vertex="1" parent="1">
          <mxGeometry x="641" y="223.5400000000001" width="72" height="29.82" as="geometry" />
        </mxCell>
        <mxCell id="ImZBpzeS0wlHYpYX2jTG-9" value="" style="endArrow=classic;startArrow=classic;html=1;rounded=0;entryX=0.5;entryY=0;entryDx=0;entryDy=0;exitX=0.5;exitY=1;exitDx=0;exitDy=0;strokeColor=#0000FF;strokeWidth=3;" edge="1" parent="1" source="Mf00HP_BYAakIvplPf2A-21" target="Mf00HP_BYAakIvplPf2A-15">
          <mxGeometry width="50" height="50" relative="1" as="geometry">
            <mxPoint x="372" y="359" as="sourcePoint" />
            <mxPoint x="422" y="309" as="targetPoint" />
          </mxGeometry>
        </mxCell>
        <mxCell id="ImZBpzeS0wlHYpYX2jTG-10" value="" style="endArrow=classic;startArrow=classic;html=1;rounded=0;entryX=0;entryY=0;entryDx=0;entryDy=0;exitX=1;exitY=0.5;exitDx=0;exitDy=0;strokeColor=#FF00FF;strokeWidth=2;" edge="1" parent="1" source="Mf00HP_BYAakIvplPf2A-26" target="Mf00HP_BYAakIvplPf2A-3">
          <mxGeometry width="50" height="50" relative="1" as="geometry">
            <mxPoint x="442" y="385" as="sourcePoint" />
            <mxPoint x="442" y="448" as="targetPoint" />
          </mxGeometry>
        </mxCell>
        <mxCell id="ImZBpzeS0wlHYpYX2jTG-11" value="" style="endArrow=classic;startArrow=classic;html=1;rounded=0;entryX=0.01;entryY=0.585;entryDx=0;entryDy=0;strokeColor=#FF00FF;strokeWidth=2;entryPerimeter=0;exitX=0.887;exitY=0.195;exitDx=0;exitDy=0;exitPerimeter=0;" edge="1" parent="1" source="Mf00HP_BYAakIvplPf2A-7" target="Mf00HP_BYAakIvplPf2A-26">
          <mxGeometry width="50" height="50" relative="1" as="geometry">
            <mxPoint x="323" y="209" as="sourcePoint" />
            <mxPoint x="566" y="237" as="targetPoint" />
          </mxGeometry>
        </mxCell>
        <mxCell id="ImZBpzeS0wlHYpYX2jTG-12" value="" style="endArrow=classic;startArrow=classic;html=1;rounded=0;exitX=0.091;exitY=0.214;exitDx=0;exitDy=0;curved=0;strokeWidth=3;fillColor=#e1d5e7;strokeColor=#9673a6;endFill=1;entryX=1;entryY=1;entryDx=0;entryDy=0;exitPerimeter=0;" edge="1" parent="1" source="Mf00HP_BYAakIvplPf2A-21" target="Mf00HP_BYAakIvplPf2A-7">
          <mxGeometry width="50" height="50" relative="1" as="geometry">
            <mxPoint x="538" y="276" as="sourcePoint" />
            <mxPoint x="356" y="276" as="targetPoint" />
          </mxGeometry>
        </mxCell>
        <mxCell id="ImZBpzeS0wlHYpYX2jTG-13" value="" style="endArrow=classic;startArrow=classic;html=1;rounded=0;curved=0;strokeWidth=3;fillColor=#e1d5e7;strokeColor=#9673a6;endFill=1;entryX=0.186;entryY=0.89;entryDx=0;entryDy=0;exitX=0.963;exitY=0.297;exitDx=0;exitDy=0;entryPerimeter=0;exitPerimeter=0;" edge="1" parent="1" source="Mf00HP_BYAakIvplPf2A-21" target="Mf00HP_BYAakIvplPf2A-3">
          <mxGeometry width="50" height="50" relative="1" as="geometry">
            <mxPoint x="585" y="426" as="sourcePoint" />
            <mxPoint x="558.1632177478057" y="318.99575541935184" as="targetPoint" />
          </mxGeometry>
        </mxCell>
      </root>
    </mxGraphModel>
  </diagram>
</mxfile>
